<svg width="284" height="88" viewBox="0 0 284 88" fill="none" xmlns="http://www.w3.org/2000/svg">
<path fill-rule="evenodd" clip-rule="evenodd" d="M51.0532 24.3509L50.8426 24.9271L50.1495 26.7706L49.6894 27.9594C46.1958 36.8695 43.4779 41.0983 40.5891 41.0983C38.9242 41.0983 37.9389 40.6036 36.6632 39.4425L36.295 39.0978C35.3772 38.2251 34.9907 38.0106 34.1078 38.0106C33.6476 38.0106 32.8242 38.618 31.7823 40.0358C30.7018 41.5059 29.5169 43.6779 28.2435 46.5387L28.1249 46.8064L40.5189 46.807L38.9757 50.1053H27.402V63.6491H24V24.3509H51.0532ZM46.2307 27.6503L27.4018 27.6491V40.7461C29.6578 36.7151 31.8015 34.6913 34.1078 34.6913C35.9009 34.6913 36.9574 35.2114 38.2904 36.4218L38.6707 36.7774C39.5276 37.5921 39.8578 37.779 40.5891 37.779C41.3977 37.779 43.5391 34.278 46.2307 27.6503ZM65.3021 24.352L68.0154 24.3509C73.4866 24.3509 80.8518 26.9474 80.8518 37.4035C80.8518 43.6121 77.7356 47.5654 73.8238 49.328L73.4866 49.4737L80.8518 63.6491H76.7834L69.9093 50.386C69.6463 50.4386 69.3438 50.4518 69.061 50.455L61.001 50.4561V63.6491H57.4237V24.4211L59.7758 24.3849C61.6701 24.3617 63.432 24.3543 65.3021 24.352ZM67.805 27.7193H61.001V47.1579H68.2258C72.8553 47.1579 77.3446 44 77.3446 37.2632C77.3446 30.4636 73.3803 27.8318 68.148 27.7228L67.805 27.7193ZM243.178 24.3547L247.164 24.3509C252.635 24.3509 260 26.9474 260 37.4035C260 43.6121 256.884 47.5654 252.972 49.328L252.635 49.4737L260 63.6491H255.932L249.058 50.386C248.795 50.4386 248.492 50.4518 248.209 50.455L240.149 50.4561V63.6491H236.572V24.4211L238.587 24.3899C240.202 24.3688 241.677 24.3591 243.178 24.3547ZM246.953 27.7193H240.149V47.1579H247.374C252.004 47.1579 256.493 44 256.493 37.2632C256.493 30.4636 252.529 27.8318 247.296 27.7228L246.953 27.7193ZM104.21 24C112.083 24 119.957 30.123 120.197 42.7708L120.203 43.3684V44.6316C120.203 57.6842 112.206 64 104.21 64C96.2673 64 88.4609 57.877 88.2226 45.2292L88.217 44.6316V43.3684C88.217 30.3158 96.1432 24 104.21 24ZM104.21 27.2982C98.209 27.2982 91.9369 31.8446 91.7295 42.8055L91.7242 43.3684V44.6316C91.7242 55.9298 98.1073 60.6316 104.14 60.6316C110.208 60.6316 116.479 56.0879 116.69 45.2004L116.695 44.6316V43.3684C116.695 32 110.312 27.2982 104.21 27.2982ZM178.703 63.6495V27.7192H187.26L188.803 24.3505H165.096V27.7192H175.196V63.6495H178.703ZM199.327 24.1405V63.6496H195.819V24.1405H199.327ZM228.013 63.6495L229.557 60.3503H210.688V46.667H223.245L224.788 43.3678H210.688V27.6497H228.013L229.557 24.3505H207.252V63.6495H228.013ZM158.259 24.4896V63.6995H157.572L134.328 36.5845C133.24 35.2671 131.637 33.2669 131.637 33.2669V37.4092V63.6995L128.088 63.6767V24.3271H128.775L152.019 51.6708C153.107 52.9882 154.61 54.6348 154.61 54.6348V50.8689V24.4896H158.259Z" fill="#0A0A0A"/>
</svg>
