<!DOCTYPE svg PUBLIC "-//W3C//DTD SVG 20010904//EN" "http://www.w3.org/TR/2001/REC-SVG-20010904/DTD/svg10.dtd">
<svg version="1.0" xmlns="http://www.w3.org/2000/svg" width="736px" height="256px" viewBox="0 0 7360 2560" preserveAspectRatio="xMidYMid meet">
<g id="layer101" fill="#000000" stroke="none">
 <path d="M886 1728 c-9 -12 -16 -29 -16 -38 0 -53 71 -79 110 -40 40 40 12 100 -45 100 -24 0 -39 -7 -49 -22z"/>
 <path d="M1716 1734 c-9 -8 -16 -28 -16 -44 0 -36 23 -60 59 -60 34 0 61 28 61 63 0 34 -24 57 -60 57 -16 0 -36 -7 -44 -16z"/>
 <path d="M2536 1728 c-22 -30 -20 -54 5 -79 29 -29 79 -23 99 14 13 24 13 30 0 55 -21 37 -81 44 -104 10z"/>
 <path d="M3420 1260 l0 -410 78 0 78 0 119 185 c65 102 121 185 124 185 3 0 59 -83 124 -185 l119 -185 79 0 79 0 0 410 0 410 -75 0 -75 0 0 -282 0 -283 -120 180 c-66 99 -125 181 -132 182 -7 2 -66 -77 -130 -175 l-118 -177 0 278 0 277 -75 0 -75 0 0 -410z"/>
 <path d="M4377 1608 c15 -35 95 -218 178 -408 l151 -345 75 -3 74 -2 175 401 c96 221 177 406 178 411 2 5 -33 8 -79 6 l-83 -3 -39 -93 -39 -92 -190 2 -190 3 -38 90 -38 90 -81 3 -81 3 27 -63z m530 -275 c-3 -5 -30 -69 -62 -143 -32 -74 -60 -139 -62 -144 -4 -6 -133 276 -133 291 0 2 59 3 131 3 71 0 128 -3 126 -7z"/>
 <path d="M5430 1330 l0 -340 -125 0 -125 0 0 -70 0 -70 330 0 330 0 0 70 0 70 -125 0 -125 0 0 340 0 340 -80 0 -80 0 0 -340z"/>
 <path d="M5990 1260 l0 -410 75 0 75 0 0 170 0 170 190 0 190 0 0 -170 0 -170 75 0 75 0 0 410 0 410 -75 0 -75 0 0 -170 0 -170 -190 0 -190 0 0 170 0 170 -75 0 -75 0 0 -410z"/>
 <path d="M1104 1570 c-55 -23 -71 -99 -30 -147 53 -61 156 -21 156 62 0 63 -69 110 -126 85z"/>
 <path d="M1514 1570 c-84 -34 -64 -162 27 -176 30 -5 42 -1 69 23 45 40 45 95 1 135 -32 29 -59 34 -97 18z"/>
 <path d="M1910 1553 c-26 -23 -32 -36 -32 -68 0 -32 6 -45 32 -68 27 -24 39 -28 69 -23 21 3 45 16 59 31 47 55 14 140 -59 151 -30 5 -42 1 -69 -23z"/>
 <path d="M2344 1570 c-55 -23 -71 -99 -30 -147 53 -61 156 -21 156 62 0 63 -69 110 -126 85z"/>
 <path d="M692 1534 c-46 -32 -17 -114 40 -114 26 0 58 36 58 65 0 29 -32 65 -58 65 -10 0 -28 -7 -40 -16z"/>
 <path d="M2750 1530 c-11 -11 -20 -31 -20 -45 0 -29 32 -65 58 -65 34 0 62 29 62 65 0 57 -60 85 -100 45z"/>
 <path d="M1283 1381 c-41 -26 -53 -49 -53 -106 0 -40 5 -52 34 -81 28 -28 42 -34 75 -34 23 0 55 7 70 15 38 19 65 77 57 123 -13 82 -113 127 -183 83z"/>
 <path d="M2125 1390 c-61 -25 -89 -102 -60 -164 21 -44 59 -66 116 -66 33 0 47 6 75 34 29 29 34 41 34 83 0 28 -7 58 -16 71 -30 44 -99 63 -149 42z"/>
 <path d="M875 1348 c-15 -14 -28 -38 -31 -59 -5 -28 -1 -41 21 -67 22 -27 34 -32 69 -32 57 0 91 34 91 92 0 77 -91 117 -150 66z"/>
 <path d="M1695 1345 c-19 -18 -25 -35 -25 -65 0 -56 34 -90 90 -90 55 0 90 34 90 88 0 82 -98 125 -155 67z"/>
 <path d="M2523 1346 c-22 -19 -28 -32 -28 -64 0 -58 34 -92 91 -92 35 0 47 5 69 32 73 86 -46 198 -132 124z"/>
 <path d="M1072 1174 c-74 -51 -66 -171 14 -209 41 -19 68 -19 110 1 42 20 64 59 64 115 0 33 -6 47 -34 75 -29 29 -41 34 -83 34 -28 0 -58 -7 -71 -16z"/>
 <path d="M1470 1162 c-60 -60 -45 -155 30 -196 47 -25 102 -15 142 24 23 24 28 37 28 80 0 75 -45 120 -120 120 -43 0 -56 -5 -80 -28z"/>
 <path d="M1884 1156 c-30 -30 -34 -40 -34 -86 0 -43 5 -56 28 -80 60 -60 155 -45 196 30 25 47 15 102 -24 142 -24 23 -37 28 -80 28 -46 0 -56 -4 -86 -34z"/>
 <path d="M2294 1156 c-28 -28 -34 -42 -34 -75 0 -56 22 -95 64 -115 42 -20 69 -20 110 -1 60 29 83 103 51 165 -22 43 -53 60 -108 60 -42 0 -54 -5 -83 -34z"/>
 <path d="M1294 976 c-45 -20 -64 -52 -64 -109 0 -42 5 -54 34 -83 30 -30 40 -34 86 -34 43 0 56 5 80 28 57 58 47 150 -22 192 -38 23 -70 25 -114 6z"/>
 <path d="M2112 970 c-69 -42 -79 -134 -22 -192 24 -23 37 -28 80 -28 46 0 56 4 86 34 29 29 34 41 34 83 0 58 -19 90 -66 109 -45 19 -73 18 -112 -6z"/>
 </g>

</svg>