<svg width="194" height="108" viewBox="0 0 194 108" fill="none" xmlns="http://www.w3.org/2000/svg">
<path d="M66.19 33.03C63.7738 33.03 61.456 33.9878 59.7447 35.6935C58.0334 37.3992 57.0679 39.7138 57.06 42.13V52.22C56.12 52.29 55.16 52.33 54.16 52.33C53.16 52.33 52.21 52.33 51.26 52.42V42.13C51.26 39.7086 50.2981 37.3863 48.5859 35.6741C46.8737 33.9619 44.5514 33 42.13 33C39.7086 33 37.3863 33.9619 35.6741 35.6741C33.9619 37.3863 33 39.7086 33 42.13V66.25C33 68.6714 33.9619 70.9937 35.6741 72.7059C37.3863 74.4181 39.7086 75.38 42.13 75.38C44.5514 75.38 46.8737 74.4181 48.5859 72.7059C50.2981 70.9937 51.26 68.6714 51.26 66.25V56.16C52.2 56.1 53.17 56.06 54.16 56.06C55.15 56.06 56.16 56.06 57.06 55.96V66.25C57.1384 68.6204 58.1352 70.8676 59.8398 72.5167C61.5444 74.1658 63.8233 75.0877 66.195 75.0877C68.5667 75.0877 70.8456 74.1658 72.5502 72.5167C74.2548 70.8676 75.2516 68.6204 75.33 66.25V42.13C75.3194 39.7129 74.3518 37.3983 72.6389 35.6929C70.9259 33.9874 68.6072 33.03 66.19 33.03ZM42.13 36.76C43.5561 36.76 44.924 37.3251 45.9343 38.3316C46.9445 39.3381 47.5147 40.7039 47.52 42.13V52.82C44.8477 53.2135 42.2387 53.9566 39.76 55.03C38.6904 55.5056 37.683 56.1101 36.76 56.83V42.13C36.7653 40.7074 37.3327 39.3446 38.3387 38.3387C39.3446 37.3327 40.7074 36.7653 42.13 36.76ZM47.52 66.25C47.52 67.6795 46.9521 69.0505 45.9413 70.0613C44.9305 71.0721 43.5595 71.64 42.13 71.64C40.7005 71.64 39.3295 71.0721 38.3187 70.0613C37.3079 69.0505 36.74 67.6795 36.74 66.25V63.83C36.74 61.7 38.43 59.67 41.27 58.41C43.2708 57.5472 45.3698 56.9326 47.52 56.58V66.25ZM66.19 71.63C64.7631 71.63 63.3947 71.0632 62.3858 70.0542C61.3768 69.0453 60.81 67.6769 60.81 66.25V55.57C63.4818 55.1794 66.0908 54.4398 68.57 53.37C69.6408 52.9009 70.6487 52.2996 71.57 51.58V66.25C71.5674 67.6761 70.9997 69.0429 69.9913 70.0513C68.9829 71.0597 67.6161 71.6274 66.19 71.63ZM67.05 49.96C65.0521 50.8214 62.9567 51.4359 60.81 51.79V42.13C60.8698 40.742 61.4633 39.4306 62.4667 38.4696C63.47 37.5086 64.8057 36.9721 66.195 36.9721C67.5843 36.9721 68.92 37.5086 69.9233 38.4696C70.9267 39.4306 71.5202 40.742 71.58 42.13V44.55C71.58 46.68 69.89 48.7 67.05 49.96Z" fill="black"/>
<circle cx="54" cy="54" r="53.5" stroke="black"/>
<path d="M158.901 49.503C159.691 44.1441 155.667 41.2633 150.165 39.3415L151.95 32.0822L147.592 30.981L145.854 38.0489C144.708 37.7595 143.531 37.4864 142.362 37.2158L144.112 30.1012L139.757 29L137.971 36.2568C137.022 36.0378 136.091 35.8213 135.188 35.5935L135.193 35.5709L129.182 34.0493L128.023 38.7688C128.023 38.7688 131.257 39.5202 131.188 39.5667C132.953 40.0135 133.272 41.1978 133.219 42.1367L131.186 50.4066C131.307 50.438 131.465 50.4834 131.639 50.5538C131.494 50.5173 131.338 50.4771 131.178 50.438L128.328 62.023C128.112 62.5667 127.565 63.3822 126.331 63.0726C126.375 63.1367 123.164 62.2709 123.164 62.2709L121 67.329L126.671 68.7624C127.726 69.0305 128.76 69.3112 129.778 69.5755L127.975 76.9178L132.328 78.019L134.114 70.7547C135.303 71.0819 136.457 71.384 137.587 71.6684L135.807 78.8988L140.165 80L141.969 72.6715C149.4 74.0974 154.988 73.5223 157.34 66.7072C159.236 61.22 157.246 58.0548 153.336 55.9908C156.184 55.325 158.328 53.4258 158.901 49.503ZM148.943 63.6603C147.597 69.1476 138.484 66.1812 135.53 65.4374L137.923 55.7101C140.878 56.4576 150.351 57.9377 148.943 63.6603ZM150.291 49.4237C149.062 54.415 141.478 51.8791 139.018 51.2574L141.188 42.435C143.648 43.0567 151.571 44.2171 150.291 49.4237Z" fill="black"/>
<circle cx="140" cy="54" r="53.5" stroke="black"/>
</svg>
